<?xml version="1.0"?>
<svg width="640" height="480" xmlns="http://www.w3.org/2000/svg" xmlns:svg="http://www.w3.org/2000/svg">
 <!-- Created with SVG-edit - https://github.com/SVG-Edit/svgedit-->
 <g class="layer">
  <title>Layer 1</title>
  <text fill="#000000" font-family="Serif" font-size="24" id="svg_5" stroke="#000000" stroke-width="0" text-anchor="middle" transform="matrix(1 0 0 1 0 0) matrix(5.78779 0 0 1 -944.028 0)" x="202.5" xml:space="preserve" y="162.5"/>
  <rect fill="#3f3f3f" height="0" id="svg_6" stroke="#000000" width="0" x="242.5" y="296.5"/>
  <text fill="#000000" font-family="Serif" font-size="24" id="svg_8" stroke="#000000" stroke-width="0" text-anchor="middle" transform="matrix(18.9891 0 0 4.18552 -5024.42 -853.327)" x="282.5" xml:space="preserve" y="289.5"/>
  <circle cx="164.5" cy="164.5" fill="#000000" id="svg_14" opacity="0.5" r="0" stroke="#000000"/>
  <rect fill="#000000" height="0" id="svg_15" stroke="#000000" width="0" x="42.5" y="133.5"/>
  <rect fill="#ffffff" height="283" id="svg_16" stroke="#000000" transform="matrix(1 0 0 1 0 0)" width="439" x="85.5" y="106.5"/>
  <circle cx="211.5" cy="245.5" fill="#000000" id="svg_17" r="98.65" stroke="#000000"/>
  <circle cx="335.5" cy="246.5" fill="#000000" id="svg_18" r="102.7" stroke="#000000"/>
  <text fill="#ffffff" font-family="Courier" font-size="26" id="svg_19" stroke="#000000" stroke-width="0" text-anchor="middle" transform="matrix(1 0 0 1 0 0) matrix(2.2433 0 0 2.03039 -287.687 -227.902)" x="238.35" xml:space="preserve" y="241.59">Yatin</text>
 </g>
</svg>